<?xml version="1.0" encoding="iso-8859-1"?>
<!-- Uploaded to: SVG Repo, www.svgrepo.com, Generator: SVG Repo Mixer Tools -->
<svg fill="currentColor" height="800px" width="800px" version="1.1" id="Layer_1" xmlns="http://www.w3.org/2000/svg" xmlns:xlink="http://www.w3.org/1999/xlink"
	 viewBox="0 0 512.001 512.001" xml:space="preserve">
<g>
	<g>
		<path d="M238.565,131.209c0-0.083-0.001-0.166-0.004-0.249L234.508,7.346C234.373,3.251,231.014,0,226.916,0h-99.68
			c-4.097,0-7.457,3.251-7.591,7.346l-4.051,123.614c-0.002,0.083-0.004,0.166-0.004,0.249c0,22.255,11.884,41.785,29.64,52.579
			v26.936l-8.937,259.061c-0.385,11.161,3.676,21.73,11.436,29.761c7.758,8.032,18.181,12.454,29.349,12.454
			c11.167,0,21.59-4.423,29.349-12.454c7.759-8.031,11.819-18.6,11.436-29.761l-8.937-259.061v-26.936
			C226.68,172.994,238.565,153.464,238.565,131.209z M195.5,488.992c-4.871,5.041-11.414,7.818-18.423,7.818
			s-13.553-2.777-18.423-7.818c-4.87-5.042-7.42-11.677-7.178-18.682l8.689-251.856h33.826l8.689,251.856
			C202.919,477.315,200.37,483.95,195.5,488.992z M193.73,203.262h-33.31v-12.878c5.301,1.495,10.883,2.311,16.655,2.311
			c5.773,0,11.355-0.817,16.655-2.311V203.262z M177.075,177.505c-25.487,0-46.23-20.703-46.295-46.176l3.807-116.138h18.634v75.405
			c0,4.195,3.401,7.595,7.595,7.595s7.595-3.401,7.595-7.595V15.191h17.328v75.405c0,4.195,3.401,7.595,7.595,7.595
			c4.195,0,7.595-3.401,7.595-7.595V15.191h18.635l3.806,116.138C223.306,156.802,202.562,177.505,177.075,177.505z"/>
	</g>
</g>
<g>
	<g>
		<path d="M376.012,241.094V211.39c3.875-8.546,20.399-48.372,20.399-105.87c0-66.079-55.368-102.767-57.725-104.296
			C337.455,0.425,336.019,0,334.551,0h-14.636c-4.195,0-7.595,3.401-7.595,7.595v202.108v31.391l-8.937,228.691
			c-0.385,11.16,3.675,21.73,11.435,29.761c7.759,8.031,18.182,12.454,29.349,12.454s21.59-4.423,29.349-12.454
			c7.759-8.031,11.819-18.6,11.434-29.795L376.012,241.094z M327.511,217.338l33.311,0.174v16.132h-33.311V217.338z
			 M362.589,488.992c-4.871,5.041-11.414,7.818-18.423,7.818s-13.553-2.777-18.423-7.818c-4.87-5.042-7.419-11.677-7.179-18.647
			l8.657-221.51h33.893l8.655,221.475C370.01,477.315,367.459,483.95,362.589,488.992z M363.456,202.108h-35.945V15.191h4.639
			c8.932,6.539,49.071,38.806,49.071,90.329C381.221,154.354,368.352,190.229,363.456,202.108z"/>
	</g>
</g>
</svg>
